<?xml version="1.0" encoding="UTF-8"?> <svg xmlns="http://www.w3.org/2000/svg" xmlns:xlink="http://www.w3.org/1999/xlink" id="Layer_1" data-name="Layer 1" viewBox="0 0 549.85 359.24"><defs><style>.cls-1{fill:none;}.cls-2{clip-path:url(#clip-path);}.cls-3{fill:#3ab394;}.cls-4{fill:#5c8fd1;}.cls-5{fill:#94c7fa;}.cls-6{fill:#365299;}.cls-7{fill:#c2e0ff;}.cls-8{fill:#0f2b6e;}.cls-9{fill:#fab54a;}.cls-10{fill:#fff;}.cls-11{fill:#70bdf7;}.cls-12{fill:#f58221;}.cls-13{fill:#b62a49;}.cls-14{fill:#f79645;}.cls-15{fill:#d1e5ff;}.cls-16{fill:#7aa8e3;}.cls-17{fill:#e8f0fa;}.cls-18{fill:#02c39a;}</style><clipPath id="clip-path"><rect class="cls-1" width="549.85" height="359.24"></rect></clipPath></defs><g class="cls-2"><path class="cls-3" d="M258.69,12.62c-27.85,10.43-54.33,32.75-75.18,53.57C140.08,109.53,133.6,118.64,80,155c-31.22,21.21-55.84,39.15-68,63.14C-22,285.56,18.56,358.34,103.6,358.34H449.31s40.66.93,70.33-35.09C620.22,201.17,453.41-60.28,258.69,12.62"></path><path class="cls-4" d="M54.51,133.21H310.16c6.27,0,9.74,6,11.4,12.81l47.87,196c1.66,6.79-5.13,12.81-11.4,12.81H93.71c-6.27,0-10-5.94-11.4-12.81L43.11,146c-1.38-6.87,5.13-12.81,11.4-12.81"></path><path class="cls-5" d="M62,133.21H317.7c6.27,0,9.74,6,11.4,12.81L377,342c1.66,6.79-5.13,12.81-11.4,12.81H101.25c-6.27,0-10-5.94-11.4-12.81L50.64,146c-1.37-6.87,5.13-12.81,11.4-12.81"></path><path class="cls-6" d="M65,143.53H315.52c1.8,0,2.79,1.74,3.28,3.69l44.67,175.84c.5,1.95-1.48,3.69-3.28,3.69h-259c-1.81,0-2.88-1.71-3.29-3.69L61.68,147.22A3.3,3.3,0,0,1,65,143.53"></path><path class="cls-4" d="M90.16,340.77H439.41V350a9.25,9.25,0,0,1-9.23,9.23H99.4A9.26,9.26,0,0,1,90.16,350Z"></path><path class="cls-7" d="M286.89,340.77H546V350a9.25,9.25,0,0,1-9.23,9.23H296.12a9.25,9.25,0,0,1-9.23-9.23Z"></path><path class="cls-8" d="M391.31,348h79.45a1.76,1.76,0,1,1,0,3.51H391.31a1.76,1.76,0,0,1,0-3.51"></path></g><rect class="cls-8" x="120.8" y="347.48" width="87.56" height="5.28"></rect><rect class="cls-8" x="212.96" y="347.48" width="23" height="5.28"></rect><rect class="cls-9" x="160.29" y="99.61" width="79.67" height="63.82"></rect><g class="cls-2"><path class="cls-10" d="M218.9,109.47a7.16,7.16,0,1,1-7.15,7.15,7.16,7.16,0,0,1,7.15-7.15m-5.51,18,19.1,29.17H168.31l25.42-38.83,13,19.84Z"></path></g><rect class="cls-11" x="279.79" y="122.92" width="82.84" height="66.36"></rect><g class="cls-2"><path class="cls-10" d="M310.5,168.24V148.06l20.19-11.33L335.5,134v25.35c.63,2.52-1.88,6-6.23,8.11s-7.66,1.38-8.8-1.15,1.48-6.46,4.68-8,3.86-1.43,5.54-1.49V142.45l-15.37,8.62V171c.48,2.51-2,5.83-6.27,7.95s-7.39,1.45-8.52-1.09,1.19-6.52,4.4-8.1,3.89-1.44,5.57-1.49"></path></g><rect class="cls-11" x="262.3" y="20.92" width="97.4" height="73.17"></rect><polygon class="cls-12" points="307.82 39.62 305.97 33.54 287.53 33.54 287.53 39.62 287.53 75.71 334.67 75.71 334.67 39.62 307.82 39.62"></polygon><polygon class="cls-10" points="288.49 41.36 333.75 41.36 333.16 73.75 289.04 73.75 288.49 41.36"></polygon><polygon class="cls-9" points="285.96 44.65 336.04 44.65 334.67 73.75 287.53 73.75 285.96 44.65"></polygon><rect class="cls-13" x="393.27" y="87" width="113.21" height="83.56"></rect><polygon class="cls-10" points="436.19 113.21 464.57 130.02 436.19 146.83 436.19 113.21"></polygon><polygon class="cls-14" points="445.96 258.37 441.5 250.16 396.98 250.16 396.98 258.37 396.98 340.77 510.8 340.77 510.8 258.37 445.96 258.37"></polygon><rect class="cls-15" x="410.56" y="199.67" width="86.17" height="100.05"></rect><g class="cls-2"><path class="cls-16" d="M419.34,209.56H440.7a1.62,1.62,0,1,1,0,3.23H419.34a1.62,1.62,0,0,1,0-3.23"></path><path class="cls-16" d="M419.34,216.4h63.42a1.62,1.62,0,1,1,0,3.23H419.34a1.62,1.62,0,0,1,0-3.23"></path><path class="cls-16" d="M419.34,224h44a1.61,1.61,0,0,1,0,3.22h-44a1.61,1.61,0,1,1,0-3.22"></path><path class="cls-16" d="M419.34,238.53H440.7a1.62,1.62,0,1,1,0,3.23H419.34a1.62,1.62,0,0,1,0-3.23"></path><path class="cls-16" d="M419.34,245.36h63.42a1.62,1.62,0,1,1,0,3.23H419.34a1.62,1.62,0,0,1,0-3.23"></path><path class="cls-16" d="M419.34,252.94h44a1.62,1.62,0,0,1,0,3.23h-44a1.62,1.62,0,0,1,0-3.23"></path></g><polygon class="cls-10" points="399.29 264.46 508.59 264.46 507.15 340.77 400.62 340.77 399.29 264.46"></polygon><polygon class="cls-9" points="393.19 270.51 514.1 270.51 510.8 340.77 396.98 340.77 393.19 270.51"></polygon><g class="cls-2"><path class="cls-17" d="M123.39,208.29H311a10.48,10.48,0,1,1,0,21H123.39a10.48,10.48,0,1,1,0-21"></path><path class="cls-18" d="M123.39,208.29h69.19v21H123.39a10.48,10.48,0,1,1,0-21"></path><path class="cls-17" d="M123.39,263.86H311a10.49,10.49,0,0,1,0,21H123.39a10.49,10.49,0,0,1,0-21"></path><path class="cls-9" d="M123.39,263.86H271.44v21h-148a10.49,10.49,0,0,1,0-21"></path><path class="cls-16" d="M116.44,246.56h21.8a3.54,3.54,0,0,1,3.54,3.53h0a3.55,3.55,0,0,1-3.54,3.54h-21.8a3.54,3.54,0,0,1-3.53-3.54h0a3.54,3.54,0,0,1,3.53-3.53"></path><path class="cls-16" d="M156.57,246.56h72a3.54,3.54,0,0,1,3.53,3.53h0a3.54,3.54,0,0,1-3.53,3.54h-72a3.55,3.55,0,0,1-3.54-3.54h0a3.54,3.54,0,0,1,3.54-3.53"></path><path class="cls-16" d="M116.44,191.69h21.8a3.54,3.54,0,0,1,3.54,3.53h0a3.54,3.54,0,0,1-3.54,3.53h-21.8a3.54,3.54,0,0,1-3.53-3.53h0a3.54,3.54,0,0,1,3.53-3.53"></path><path class="cls-16" d="M156.57,191.69h72a3.54,3.54,0,0,1,3.53,3.53h0a3.54,3.54,0,0,1-3.53,3.53h-72a3.54,3.54,0,0,1-3.54-3.53h0a3.54,3.54,0,0,1,3.54-3.53"></path></g></svg> 